<mxfile host="Electron" modified="2023-12-06T11:46:01.865Z" agent="Mozilla/5.0 (X11; Linux x86_64) AppleWebKit/537.36 (KHTML, like Gecko) draw.io/22.0.2 Chrome/114.0.5735.289 Electron/25.8.4 Safari/537.36" etag="8XV0-p_faozV0E8R5YCp" version="22.0.2" type="device">
  <diagram name="Strona-1" id="H24XLqZnmyVWx9IPfsuY">
    <mxGraphModel dx="1434" dy="851" grid="1" gridSize="10" guides="1" tooltips="1" connect="1" arrows="1" fold="1" page="1" pageScale="1" pageWidth="827" pageHeight="1169" math="0" shadow="0">
      <root>
        <mxCell id="0" />
        <mxCell id="1" parent="0" />
        <mxCell id="HrGur3v9jd0NdOozrnoq-2" value="" style="rounded=0;whiteSpace=wrap;html=1;" parent="1" vertex="1">
          <mxGeometry x="90" y="435" width="180" height="180" as="geometry" />
        </mxCell>
        <mxCell id="HrGur3v9jd0NdOozrnoq-10" value="ST_IN" style="rounded=0;whiteSpace=wrap;html=1;" parent="1" vertex="1">
          <mxGeometry x="160" y="470" width="90" height="30" as="geometry" />
        </mxCell>
        <mxCell id="HrGur3v9jd0NdOozrnoq-11" value="ST_PT" style="rounded=0;whiteSpace=wrap;html=1;" parent="1" vertex="1">
          <mxGeometry x="160" y="510" width="90" height="30" as="geometry" />
        </mxCell>
        <mxCell id="HrGur3v9jd0NdOozrnoq-12" value="EARTH" style="rounded=0;whiteSpace=wrap;html=1;" parent="1" vertex="1">
          <mxGeometry x="160" y="550" width="90" height="30" as="geometry" />
        </mxCell>
        <mxCell id="HrGur3v9jd0NdOozrnoq-17" value="&lt;font style=&quot;font-size: 18px;&quot;&gt;Fumex Driver&lt;/font&gt;" style="text;strokeColor=none;align=center;fillColor=none;html=1;verticalAlign=middle;whiteSpace=wrap;rounded=0;rotation=-90;" parent="1" vertex="1">
          <mxGeometry x="70" y="510" width="140" height="30" as="geometry" />
        </mxCell>
        <mxCell id="HrGur3v9jd0NdOozrnoq-20" style="edgeStyle=orthogonalEdgeStyle;rounded=0;orthogonalLoop=1;jettySize=auto;html=1;exitX=0;exitY=0.5;exitDx=0;exitDy=0;entryX=1;entryY=0.5;entryDx=0;entryDy=0;endArrow=none;endFill=0;" parent="1" source="HrGur3v9jd0NdOozrnoq-18" target="HrGur3v9jd0NdOozrnoq-10" edge="1">
          <mxGeometry relative="1" as="geometry" />
        </mxCell>
        <mxCell id="HrGur3v9jd0NdOozrnoq-18" value="&lt;font style=&quot;font-size: 18px;&quot;&gt;Stand&lt;/font&gt;" style="rounded=0;whiteSpace=wrap;html=1;" parent="1" vertex="1">
          <mxGeometry x="400" y="455" width="190" height="60" as="geometry" />
        </mxCell>
        <mxCell id="HrGur3v9jd0NdOozrnoq-21" value="" style="rounded=0;whiteSpace=wrap;html=1;" parent="1" vertex="1">
          <mxGeometry x="400" y="525" width="190" height="125" as="geometry" />
        </mxCell>
        <mxCell id="HrGur3v9jd0NdOozrnoq-24" style="edgeStyle=orthogonalEdgeStyle;rounded=0;orthogonalLoop=1;jettySize=auto;html=1;exitX=0;exitY=0.5;exitDx=0;exitDy=0;entryX=1;entryY=0.5;entryDx=0;entryDy=0;endArrow=none;endFill=0;" parent="1" source="HrGur3v9jd0NdOozrnoq-22" target="HrGur3v9jd0NdOozrnoq-11" edge="1">
          <mxGeometry relative="1" as="geometry" />
        </mxCell>
        <mxCell id="HrGur3v9jd0NdOozrnoq-22" value="STAND" style="rounded=0;whiteSpace=wrap;html=1;" parent="1" vertex="1">
          <mxGeometry x="414" y="540" width="90" height="30" as="geometry" />
        </mxCell>
        <mxCell id="HrGur3v9jd0NdOozrnoq-23" value="EARTH" style="rounded=0;whiteSpace=wrap;html=1;" parent="1" vertex="1">
          <mxGeometry x="414" y="610" width="90" height="30" as="geometry" />
        </mxCell>
        <mxCell id="HrGur3v9jd0NdOozrnoq-28" style="edgeStyle=orthogonalEdgeStyle;rounded=0;orthogonalLoop=1;jettySize=auto;html=1;exitX=0.5;exitY=0;exitDx=0;exitDy=0;exitPerimeter=0;entryX=1;entryY=0.5;entryDx=0;entryDy=0;endArrow=none;endFill=0;" parent="1" source="HrGur3v9jd0NdOozrnoq-26" target="HrGur3v9jd0NdOozrnoq-12" edge="1">
          <mxGeometry relative="1" as="geometry" />
        </mxCell>
        <mxCell id="HrGur3v9jd0NdOozrnoq-26" value="" style="pointerEvents=1;verticalLabelPosition=bottom;shadow=0;dashed=0;align=center;html=1;verticalAlign=top;shape=mxgraph.electrical.signal_sources.protective_earth;" parent="1" vertex="1">
          <mxGeometry x="280" y="670" width="25" height="20" as="geometry" />
        </mxCell>
        <mxCell id="HrGur3v9jd0NdOozrnoq-29" value="" style="pointerEvents=1;verticalLabelPosition=bottom;shadow=0;dashed=0;align=center;html=1;verticalAlign=top;shape=mxgraph.electrical.signal_sources.protective_earth;" parent="1" vertex="1">
          <mxGeometry x="320" y="670" width="25" height="20" as="geometry" />
        </mxCell>
        <mxCell id="HrGur3v9jd0NdOozrnoq-30" style="edgeStyle=orthogonalEdgeStyle;rounded=0;orthogonalLoop=1;jettySize=auto;html=1;exitX=0;exitY=0.5;exitDx=0;exitDy=0;entryX=0.5;entryY=0;entryDx=0;entryDy=0;entryPerimeter=0;endArrow=none;endFill=0;" parent="1" source="HrGur3v9jd0NdOozrnoq-23" target="HrGur3v9jd0NdOozrnoq-29" edge="1">
          <mxGeometry relative="1" as="geometry" />
        </mxCell>
        <mxCell id="yiEk_ydIAPidrz7zL2Z3-1" value="&lt;font style=&quot;font-size: 18px;&quot;&gt;Soldering&lt;br&gt;&amp;nbsp;station&lt;/font&gt;" style="text;strokeColor=none;align=center;fillColor=none;html=1;verticalAlign=middle;whiteSpace=wrap;rounded=0;rotation=-90;" vertex="1" parent="1">
          <mxGeometry x="470" y="572.5" width="140" height="30" as="geometry" />
        </mxCell>
      </root>
    </mxGraphModel>
  </diagram>
</mxfile>
